<svg width="205" height="192" viewBox="0 0 205 192" fill="none" xmlns="http://www.w3.org/2000/svg">
<path d="M109.002 22L121.634 27.2442L135.268 26.1602L145.661 35.0513L158.963 38.2336L166.101 49.9012L177.768 57.0383L180.95 70.3403L189.841 80.7336L188.757 94.368L194.002 107L188.757 119.632L189.841 133.266L180.95 143.66L177.768 156.962L166.101 164.099L158.963 175.766L145.661 178.949L135.268 187.84L121.634 186.756L109.002 192L96.3696 186.756L82.7352 187.84L72.3419 178.949L59.0399 175.766L51.9028 164.099L40.2352 156.962L37.0529 143.66L28.1618 133.266L29.2458 119.632L24.0016 107L29.2458 94.368L28.1618 80.7336L37.0529 70.3403L40.2352 57.0383L51.9028 49.9012L59.0399 38.2336L72.3419 35.0513L82.7352 26.1602L96.3696 27.2442L109.002 22Z" fill="#DEA555"/>
<path fill-rule="evenodd" clip-rule="evenodd" d="M158.394 82.5338L96.826 144.101L66.0422 113.318L77.5861 101.774L96.826 121.014L146.85 70.9899L158.394 82.5338Z" fill="black"/>
<path d="M5.11909 105.209C4.87266 102.359 6.37988 100.948 9.10656 101.398C10.7984 101.674 13.4438 102.161 13.4838 102.162C15.9486 102.664 16.8562 104.275 16.2817 107.137C16.1847 107.654 15.6738 107.978 15.1573 107.861C14.6602 107.764 14.3562 107.274 14.4526 106.777C14.9074 104.511 14.3588 104.152 13.1454 103.932C12.2505 103.763 10.44 103.443 8.80816 103.169C7.27557 102.919 6.75874 103.422 6.90536 105.048L7.07421 107.214C11.0752 108.467 14.405 110.657 16.3144 113.442C16.6018 113.831 16.4634 114.387 16.0345 114.653C15.6261 114.9 15.0897 114.782 14.803 114.372C13.1569 112.097 10.4357 110.267 7.13167 109.117C7.16888 110.419 7.1235 111.799 6.99422 113.295C6.95779 113.794 6.50619 114.14 6.00778 114.083C5.50936 114.027 5.16402 113.575 5.21979 113.097C5.35367 111.46 5.38235 109.98 5.32843 108.578C4.17761 108.28 2.96419 108.06 1.72749 107.939C1.24906 107.883 0.862434 107.47 0.898864 106.971C0.935294 106.472 1.36756 106.106 1.84599 106.162C3.00273 106.28 4.13751 106.457 5.22968 106.714C5.20614 106.212 5.16262 105.711 5.11909 105.209Z" fill="black"/>
<path d="M9.25311 81.1491C9.36598 80.662 9.86544 80.3671 10.333 80.4755C10.8201 80.5883 11.1195 81.0683 11.0066 81.5554C10.6906 82.9193 10.4152 84.1078 10.1999 85.1254C14.8175 86.1955 17.3863 88.5768 18.324 92.5922C18.439 93.0705 18.1223 93.5514 17.6095 93.6379C17.1163 93.7289 16.6399 93.3926 16.5294 92.8949C15.5916 88.8795 12.8299 87.6852 9.80853 86.903C9.47134 88.4467 9.25747 89.5468 9.15623 90.4267C10.2345 91.6209 11.0922 92.9694 11.6337 94.265C11.8311 94.7419 11.5878 95.2604 11.096 95.4338C10.6236 95.6118 10.1006 95.3879 9.90319 94.9111C8.36831 91.4348 5.79149 89.7086 4.20618 88.9306C3.74618 88.7008 3.53828 88.1805 3.70509 87.7264C3.90042 87.2379 4.44478 87.015 4.88981 87.2208C5.8533 87.6699 6.7657 88.2509 7.59257 88.9352C7.85634 87.3539 8.34704 85.1477 9.25311 81.1491Z" fill="black"/>
<path d="M15.0724 63.6516L11.6258 71.3996C11.4225 71.8564 10.9026 72.041 10.4641 71.8459C10.0072 71.6427 9.82261 71.1228 10.0177 70.6842L13.4643 62.9363C13.6676 62.4794 14.1875 62.2948 14.626 62.4899C15.0829 62.6931 15.2675 63.213 15.0724 63.6516ZM23.8331 75.0569C23.7212 75.5543 23.2419 75.8446 22.7525 75.7144C22.2814 75.5924 21.9729 75.105 22.0848 74.6075C22.7845 71.2632 22.1032 68.2677 20.1463 65.9744C19.0116 64.6378 18.7781 64.6215 18.2172 65.8823C17.5242 67.3909 16.4772 71.1717 15.0039 74.2376C14.7743 74.7046 14.2361 74.8811 13.7691 74.6514C13.3285 74.4117 13.152 73.8735 13.3918 73.4329C15.0601 70.1254 15.8917 66.9274 16.7371 65.0269C18.1597 61.8291 19.9869 63.0359 21.5743 64.8803C23.9005 67.6225 24.667 71.1156 23.8331 75.0569Z" fill="black"/>
<path d="M23.0366 51.1426C24.9883 47.4294 27.2366 48.7174 28.2145 49.552C29.8401 50.891 31.4615 52.6184 32.102 53.4112C33.9155 55.665 33.4344 57.6006 30.7014 59.0526C30.2798 59.2695 29.746 59.0897 29.5242 58.6403C29.3073 58.2187 29.4756 57.7013 29.925 57.4795C32.4709 56.1893 32.0848 55.2086 27.1056 50.8504C26.5463 50.3592 25.4667 49.5998 24.2248 52.443C26.6727 55.2897 28.9082 58.6471 30.1088 61.6679C30.2864 62.1106 30.0575 62.6098 29.5984 62.7759C29.1622 62.9093 28.663 62.6804 28.5018 62.2491C27.3696 59.3743 25.559 56.5602 23.4952 54.106C23.11 54.8621 22.6825 55.5395 22.0417 56.3114C21.7607 56.6761 21.2216 56.7126 20.8356 56.3922C20.4939 56.0784 20.4738 55.5508 20.7663 55.1697C21.4465 54.3766 21.851 53.732 22.2973 52.7499C21.4538 51.8632 20.5759 51.0256 19.7125 50.2716C19.3592 49.9742 19.3228 49.4351 19.6038 49.0703C19.9012 48.7171 20.4518 48.6643 20.8214 48.9732C21.5654 49.6188 22.2962 50.3528 23.0366 51.1426ZM28.185 41.6332C28.5273 41.7028 28.746 42.0523 28.6601 42.3831C28.602 42.709 28.2804 42.9229 27.9217 42.8418C27.0669 42.6318 26.2576 42.6004 25.3823 42.7672C25.0643 42.8369 24.7419 42.6347 24.7001 42.3118C24.6303 41.9938 24.8326 41.6714 25.1621 41.5854C26.1719 41.3665 26.9928 41.3814 28.185 41.6332ZM27.5883 44.6368C26.7008 44.4037 25.9799 44.3857 25.1537 44.587C24.8193 44.6452 24.4855 44.4593 24.3994 44.1298C24.3248 43.7839 24.5222 43.4337 24.8681 43.3591C25.8222 43.15 26.7708 43.157 27.8304 43.3888C28.189 43.4699 28.4078 43.8194 28.3382 44.1617C28.2686 44.504 27.9191 44.7227 27.5883 44.6368ZM26.7908 45.9097C29.0261 45.7215 32.7511 46.092 34.9975 46.7919C35.4936 46.9208 35.7791 47.4883 35.6435 48.0287C35.4867 48.5297 34.9422 48.7825 34.4526 48.6093C31.8954 47.6909 29.0089 47.5188 26.9208 47.8106C26.3865 47.8749 25.9351 47.5085 25.892 47.0136C25.8507 46.4466 26.2401 45.9625 26.7908 45.9097Z" fill="black"/>
<path d="M39.0665 39.6397C38.906 39.9341 38.7316 40.2141 38.5428 40.5079L43.2564 45.3814C43.5762 45.712 43.5812 46.2637 43.2361 46.5974C42.9055 46.9172 42.3538 46.9222 42.0201 46.5771L37.515 41.9194C37.0958 42.464 36.677 42.9803 36.2448 43.454C35.5969 44.1363 34.4761 43.4953 34.6479 42.5222C34.7575 41.8875 34.8138 41.054 34.7872 40.1059C34.0255 39.98 33.1488 39.9654 32.5123 39.9689C31.8192 39.9715 31.2198 39.4382 31.1468 38.7298C31.0103 37.5818 30.6769 36.374 30.2668 35.5185C30.0759 35.091 30.2114 34.5983 30.5689 34.3638C30.9691 34.1158 31.4902 34.2518 31.6954 34.6654C32.3256 35.8923 32.6975 37.3412 32.7663 38.3042C33.4311 38.3011 34.0528 38.3398 34.6175 38.4058C34.3995 37.0584 33.9711 35.6086 33.2162 34.224C32.9827 33.81 33.1326 33.3033 33.5323 33.0836C33.9602 32.8645 34.4952 33.0148 34.7288 33.4289C35.9215 35.6977 36.5627 38.8059 36.4472 40.6427C36.8526 40.0837 37.2876 39.4403 37.6369 38.8521C37.3843 38.7348 37.1172 38.6313 36.8502 38.5278C36.4284 38.3794 36.2241 37.9092 36.4286 37.5166C36.6337 37.0957 37.1321 36.8918 37.5535 37.0686C38.2141 37.32 39.0137 37.7153 39.7414 38.18C40.1336 38.4128 40.2521 38.9381 40.0471 39.3591C39.8713 39.7239 39.4313 39.8155 39.0665 39.6397ZM46.976 31.8226C47.4309 31.6887 47.9227 31.8808 48.128 32.2944C48.3476 32.6941 48.1556 33.186 47.729 33.3203C46.2921 33.8197 44.5192 34.1154 42.7634 34.2276C42.6652 35.8808 42.3123 37.5298 41.7496 39.048C41.5867 39.4837 41.0887 39.6593 40.6822 39.4404C40.2757 39.2214 40.0857 38.7374 40.2491 38.2733C40.7381 36.9378 40.9874 35.5558 41.0796 34.2702C40.2173 34.2417 39.3837 34.1854 38.6786 34.0605C38.6399 34.6822 38.5878 35.2612 38.4945 35.7689C38.4017 36.2482 37.9023 36.5086 37.4526 36.3314C37.003 36.1542 36.7564 35.6692 36.8354 35.1754C37.1934 33.2154 36.8333 31.0595 36.3191 29.6648C36.1569 29.2095 36.3634 28.7037 36.7909 28.5128C37.2467 28.3224 37.7524 28.5289 37.9146 28.9842C38.0095 29.2262 38.0762 29.4678 38.1429 29.7093L40.5149 27.4151C40.9606 26.984 41.7079 27.1238 41.9386 27.7076C42.4797 29.1876 42.7769 30.8757 42.8047 32.6017C44.2067 32.4978 45.6537 32.239 46.976 31.8226ZM38.6355 32.4049C39.3684 32.5586 40.2154 32.6576 41.1203 32.6726C41.0994 31.3852 40.9481 30.2794 40.7633 29.4843L38.5494 31.6256C38.5874 31.8949 38.6114 32.1499 38.6355 32.4049ZM43.7629 37.9076C43.3484 38.1694 42.8273 38.0334 42.5794 37.6333C42.3319 37.2048 42.454 36.6694 42.8824 36.4219C43.8965 35.8306 45.3367 35.1333 46.5325 34.6723C46.9883 34.4819 47.5501 34.7176 47.7544 35.1877C47.9592 35.6296 47.7245 36.1349 47.2409 36.2966C46.2454 36.6194 44.8062 37.2602 43.7629 37.9076ZM37.269 43.1034C37.6557 42.8128 38.206 42.8927 38.4971 43.2511C39.4532 44.441 40.4486 45.8155 41.0616 47.2259C41.2525 47.6534 41.0882 48.174 40.6598 48.4215C40.2879 48.6699 39.7956 48.5061 39.6047 48.0786C38.9774 46.682 38.1205 45.4796 37.1222 44.2749C36.8311 43.9164 36.8966 43.38 37.269 43.1034ZM40.9059 40.4483C41.6077 40.7712 43.4271 41.933 44.0565 42.3537C44.4338 42.6287 44.538 43.168 44.2908 43.574C44.044 43.9518 43.5336 44.0281 43.1563 43.7531C42.5416 43.2903 40.834 42.2151 40.2443 41.9507C39.823 41.774 39.6186 41.3038 39.7949 40.9107C40.0004 40.4615 40.4989 40.2577 40.9059 40.4483ZM49.8799 37.5004C50.364 37.3104 50.9268 37.4895 51.1881 37.9323C51.4361 38.3325 51.243 38.8809 50.7877 39.0431C49.336 39.5846 47.1711 40.482 45.7852 41.3217C45.3706 41.5836 44.8496 41.4476 44.6443 41.034C44.4112 40.5916 44.5477 40.0423 44.9761 39.7948C46.3616 38.9834 48.4555 38.099 49.8799 37.5004Z" fill="black"/>
<path d="M61.7461 19.7648C63.8426 20.6467 66.6093 24.5498 61.9271 29.6084C61.6063 29.9592 61.0403 29.9684 60.6954 29.6199C60.3782 29.2773 60.3631 28.739 60.7007 28.3773C62.2486 26.6836 63.7494 23.9241 61.933 22.0029C59.8537 19.8231 56.6611 21.2954 54.936 25.916C56.2359 27.8858 57.5802 29.8507 58.6369 31.3347C58.9146 31.7267 58.8408 32.2749 58.4321 32.5635C58.051 32.8581 57.5027 32.7843 57.2141 32.3755C56.3699 31.1828 55.3301 29.6879 54.2912 28.1209C54.167 28.7018 54.0537 29.2994 53.9731 29.9474L53.9553 30.0304C53.9685 30.7129 53.9541 31.3895 53.907 32.0157C53.8786 32.4869 53.458 32.8308 52.976 32.7856C52.5216 32.7464 52.1944 32.3149 52.2228 31.8437C52.3828 29.8099 52.2666 26.8349 52.2627 25.0264L51.98 24.59C51.3424 25.4082 50.5723 26.1691 49.3964 27.0024C49.0044 27.2801 48.4789 27.1678 48.2179 26.7649C47.9678 26.3789 48.0633 25.8642 48.4444 25.5697C49.654 24.7147 50.341 23.936 50.9796 23.0457C50.2679 21.9102 49.6431 20.9089 49.22 20.1822C48.9758 19.7685 49.1217 19.2212 49.5631 18.9829C49.9877 18.7555 50.5182 18.9123 50.7624 19.326C51.1479 19.958 51.658 20.819 52.2778 21.7758C53.2861 21.4562 54.2714 22.4622 54.0517 23.5577C54.039 23.6851 54.0094 23.8234 53.9798 23.9617C55.7293 20.4455 58.5136 18.3797 61.7461 19.7648Z" fill="black"/>
<path d="M75.8823 22.0207C75.4627 22.2104 74.965 22.0435 74.7679 21.6053C74.5857 21.2043 74.76 20.7252 75.187 20.5541C79.9806 18.483 79.6142 13.6959 76.9809 13.415C74.3105 13.149 72.2144 17.5436 68.8277 18.3402C68.3784 18.4555 67.9474 18.1326 67.8617 17.6499C67.7798 17.2302 68.0656 16.8141 68.5038 16.7248C70.9955 16.1144 72.7541 12.7598 75.6431 11.9042C80.463 10.4904 83.5163 18.4886 75.8823 22.0207Z" fill="black"/>
<path d="M93.1241 6.13743C92.4613 6.71348 91.6579 7.19445 90.7766 7.5886C90.7436 11.3225 90.005 14.9889 88.954 17.8805C88.7783 18.3422 88.2708 18.5623 87.8091 18.3866C87.3475 18.2109 87.1273 17.7035 87.2834 17.2456C88.3586 14.2679 88.9239 11.2867 89.011 8.25528C87.9929 8.57399 86.9401 8.81793 85.8562 9.00675C85.3811 9.07808 84.9322 8.75734 84.8609 8.28225C84.7895 7.80715 85.1103 7.35824 85.5854 7.28691C86.8105 7.0912 87.9457 6.85173 88.9954 6.48617C88.963 5.47397 88.8679 4.4535 88.7297 3.42098C88.6584 2.94589 88.995 2.47354 89.4701 2.40222C89.9648 2.3271 90.4137 2.64784 90.4888 3.14257C90.6125 3.99456 90.6932 4.8345 90.7383 5.70166C91.1597 5.45739 91.5379 5.20106 91.9049 4.88581C92.2718 4.57057 92.8051 4.58985 93.152 4.9099C93.5028 5.24959 93.491 5.82218 93.1241 6.13743ZM92.7362 7.82145C92.606 7.35773 92.8603 6.88091 93.3005 6.73482C95.317 6.1012 97.6088 5.94405 99.3086 6.30852C99.7786 6.42151 100.077 6.91383 99.9681 7.40339C99.8709 7.84989 99.3945 8.12518 98.9245 8.01218C97.3893 7.65667 95.5568 7.76592 93.7722 8.33442C93.3319 8.48051 92.8589 8.2459 92.7362 7.82145ZM101.825 14.1742C102.014 14.6266 101.834 15.1706 101.389 15.399C98.6419 16.7847 95.6876 16.8864 92.9145 15.7106C92.4725 15.5311 92.2682 15.0002 92.487 14.5506C92.6702 14.1282 93.1853 13.9474 93.6273 14.1268C95.8843 15.056 98.3052 14.935 100.686 13.7625C101.115 13.5575 101.639 13.7415 101.825 14.1742Z" fill="black"/>
<path d="M114.642 3.05005C113.605 2.4439 112.367 2.07656 110.908 1.94792C110.408 1.90495 110.051 1.46283 110.114 0.983193C110.177 0.483558 110.619 0.106171 111.139 0.16925C112.718 0.338609 114.195 0.78737 115.371 1.43435C115.81 1.67695 115.987 2.23801 115.764 2.7167C115.601 3.13574 115.06 3.29254 114.642 3.05005ZM111.764 16.1132C111.264 16.0903 110.907 15.6481 110.95 15.1484C110.993 14.6686 111.435 14.3313 111.915 14.3741C116.672 14.8223 118.405 12.5925 117.817 10.589C117.013 7.84419 112.532 8.09764 109.588 12.0403C109.286 12.4585 108.765 12.6554 108.306 12.5127C107.806 12.3697 107.469 11.9277 107.472 11.4277C107.508 8.80789 108.126 5.7515 109.017 3.77675C109.22 3.33794 109.741 3.16102 110.18 3.36363C110.599 3.56611 110.796 4.08729 110.593 4.52609C110.025 5.92275 109.35 8.3788 109.201 9.97794C113.265 5.80195 118.82 6.69487 119.539 10.3192C120.122 13.2027 118.122 16.4709 111.764 16.1132Z" fill="black"/>
<path d="M134.403 5.20307L136.992 5.7208C139.993 6.32089 139.726 8.77626 138.365 10.6864C135.961 14.0401 132.772 16.217 128.595 17.3192C128.1 17.4447 127.61 17.1427 127.504 16.6524C127.398 16.1621 127.72 15.6757 128.195 15.5463C132.819 14.3499 135.372 11.8828 136.859 9.65097C137.796 8.22715 137.722 7.68195 136.604 7.45839L133.054 6.74848C131.517 8.41941 129.693 9.99227 128.147 10.8866C127.712 11.1258 127.155 10.9533 126.9 10.4944C126.68 10.0629 126.853 9.50593 127.292 9.24705C129.995 7.66633 132.709 4.70103 134.023 2.61827C134.29 2.2025 134.847 2.06913 135.239 2.35154C135.67 2.64179 135.8 3.21837 135.533 3.63414C135.208 4.14012 134.819 4.65395 134.403 5.20307Z" fill="black"/>
<path d="M147.137 22.8079C146.643 22.7982 146.254 22.3775 146.272 21.8651C146.307 21.3605 146.728 20.9718 147.23 20.9631C154.038 20.622 155.23 15.704 156.657 10.1686C156.777 9.72066 157.234 9.45504 157.671 9.54947C158.137 9.67769 158.437 10.1047 158.372 10.5756C158.001 12.9334 156.57 17.6442 154.446 19.795C152.445 21.8024 149.937 22.8418 147.137 22.8079ZM149.428 17.5875C148.936 17.7301 148.405 17.4451 148.289 16.9423C147.707 14.3205 149.115 10.9205 150.255 8.53489C150.457 8.09906 150.998 7.89019 151.452 8.09996C151.907 8.30974 152.071 8.854 151.843 9.30065C150.827 11.2829 149.608 14.0686 150.066 16.4661C150.138 16.9721 149.876 17.448 149.428 17.5875Z" fill="black"/>
<path d="M163.851 31.1903C163.39 31.1257 163.106 30.6498 163.215 30.1945C163.324 29.7392 163.783 29.4433 164.249 29.5357C168.817 30.2766 172.272 27.3333 174.22 25.001C174.524 24.6502 175.068 24.6258 175.38 24.9518C175.714 25.3165 175.738 25.86 175.424 26.2274C172.073 30.1742 167.959 31.9387 163.851 31.1903ZM168.538 25.8734C168.094 25.8197 167.793 25.405 167.891 24.9663C168.104 24.028 168.492 22.8227 168.949 21.8057C169.141 21.4055 169.628 21.2481 170.04 21.4239C170.423 21.6054 170.581 22.0929 170.399 22.4764C169.992 23.3822 169.669 24.4153 169.495 25.1871C169.397 25.6257 168.982 25.927 168.538 25.8734ZM165.579 25.1646C165.113 25.1443 164.8 24.7463 164.854 24.3023C165.005 23.2754 165.343 21.8928 165.716 20.8928C165.875 20.4705 166.357 20.2855 166.779 20.4446C167.191 20.6204 167.376 21.1022 167.228 21.5078C166.909 22.3522 166.604 23.5406 166.458 24.4509C166.388 24.8839 166.006 25.2072 165.579 25.1646Z" fill="black"/>
<path d="M188.828 34.4886L190.712 36.3389C192.894 38.4836 191.327 40.3925 189.142 41.2461C185.295 42.7366 181.434 42.8129 177.335 41.4488C176.853 41.2834 176.608 40.7622 176.787 40.2939C176.967 39.8257 177.503 39.5947 177.971 39.7461C182.496 41.2762 185.983 40.6091 188.449 39.555C190.013 38.8766 190.249 38.3795 189.435 37.5805L186.853 35.0434C184.652 35.6002 182.265 35.9182 180.482 35.8207C179.986 35.7826 179.615 35.3333 179.653 34.8097C179.705 34.3284 180.154 33.9567 180.664 33.9805C183.791 34.1369 187.685 33.141 189.925 32.1172C190.376 31.9152 190.915 32.1085 191.088 32.5595C191.291 33.0386 191.083 33.592 190.633 33.7939C190.083 34.0392 189.477 34.2567 188.828 34.4886Z" fill="black"/>
<path d="M193.942 55.444C193.692 55.0819 193.795 54.5976 194.14 54.3589L202.781 48.0769C203.247 47.7309 203.915 47.8532 204.244 48.3305C204.574 48.8077 204.452 49.4755 203.963 49.7885L195.027 55.6427C194.681 55.8813 194.192 55.8061 193.942 55.444ZM190.88 57.5576C190.46 56.9486 190.59 56.081 191.215 55.6492C191.841 55.2174 192.715 55.3918 193.135 56.0008C193.567 56.6262 193.409 57.4887 192.784 57.9205C192.175 58.3409 191.312 58.183 190.88 57.5576Z" fill="black"/>
</svg>
