<svg width="185" height="185" viewBox="0 0 185 185" fill="none" xmlns="http://www.w3.org/2000/svg">
<path d="M92.5 0L106.247 5.70689L121.084 4.52728L132.394 14.2028L146.87 17.6659L154.637 30.363L167.334 38.1299L170.797 52.6056L180.473 63.9159L179.293 78.7533L185 92.5L179.293 106.247L180.473 121.084L170.797 132.394L167.334 146.87L154.637 154.637L146.87 167.334L132.394 170.797L121.084 180.473L106.247 179.293L92.5 185L78.7533 179.293L63.9159 180.473L52.6056 170.797L38.1299 167.334L30.363 154.637L17.6659 146.87L14.2028 132.394L4.52728 121.084L5.70689 106.247L0 92.5L5.70689 78.7533L4.52728 63.9159L14.2028 52.6056L17.6659 38.1299L30.363 30.363L38.1299 17.6659L52.6056 14.2028L63.9159 4.52728L78.7533 5.70689L92.5 0Z" fill="#DEA555"/>
<path fill-rule="evenodd" clip-rule="evenodd" d="M146.25 65.875L79.25 132.875L45.75 99.375L58.3125 86.8125L79.25 107.75L133.688 53.3125L146.25 65.875Z" fill="black"/>
</svg>
